# xmcd
#
# Track frame offsets:
#	183
#	14883
#	32665
#	41908
#	60558
#	75133
#	87798
#	102745
#	115933
#	133025
#
# Disc length: 1984 seconds
#
# Revision: 1
# Processed by: cddbd v1.5.2PL0 Copyright (c) Steve Scherf et al.
# Submitted via: audiograbber 1.83.01
#
DISCID=8007be0a
DTITLE=Evergreens - El Guapo
DYEAR=1900
DGENRE=Dance
TTITLE0=El Guapo
TTITLE1=Maria Luisa
TTITLE2=Marcellina
TTITLE3=Noi due
TTITLE4=Girovagando
TTITLE5=La mia donna
TTITLE6=Amore vero
TTITLE7=Oliva
TTITLE8=Una ragione c'è
TTITLE9=Incantesimo
EXTD=
EXTT0=
EXTT1=
EXTT2=
EXTT3=
EXTT4=
EXTT5=
EXTT6=
EXTT7=
EXTT8=
EXTT9=
PLAYORDER=
